<svg xmlns="http://www.w3.org/2000/svg" viewBox="0 0 32 32" width="32" height="32">
  <defs>
    <!-- Modern gradient for background -->
    <linearGradient id="bgGrad" x1="0%" y1="0%" x2="100%" y2="100%">
      <stop offset="0%" style="stop-color:#3b82f6"/>
      <stop offset="100%" style="stop-color:#1d4ed8"/>
    </linearGradient>
    
    <!-- Subtle inner gradient for book -->
    <linearGradient id="bookGrad" x1="0%" y1="0%" x2="100%" y2="100%">
      <stop offset="0%" style="stop-color:#ffffff"/>
      <stop offset="100%" style="stop-color:#f1f5f9"/>
    </linearGradient>
  </defs>
  
  <!-- Clean circular background -->
  <circle cx="16" cy="16" r="14" fill="url(#bgGrad)" stroke="rgba(255,255,255,0.2)" stroke-width="0.5"/>
  
  <!-- Open book icon - centered and balanced -->
  <g transform="translate(16, 15)">
    <!-- Book spine/binding -->
    <rect x="-0.5" y="-6" width="1" height="12" fill="rgba(255,255,255,0.3)" rx="0.5"/>
    
    <!-- Left page -->
    <path d="M -7 -5 Q -7 -6 -6 -6 L -1 -6 L -1 6 L -6 6 Q -7 6 -7 5 Z" 
          fill="url(#bookGrad)" 
          stroke="rgba(255,255,255,0.1)" 
          stroke-width="0.5"/>
    
    <!-- Right page -->
    <path d="M 1 -6 L 6 -6 Q 7 -6 7 -5 L 7 5 Q 7 6 6 6 L 1 6 Z" 
          fill="url(#bookGrad)" 
          stroke="rgba(255,255,255,0.1)" 
          stroke-width="0.5"/>
    
    <!-- Text lines on left page -->
    <line x1="-6" y1="-3" x2="-2" y2="-3" stroke="#3b82f6" stroke-width="0.4" opacity="0.8"/>
    <line x1="-6" y1="-1" x2="-2" y2="-1" stroke="#3b82f6" stroke-width="0.4" opacity="0.6"/>
    <line x1="-6" y1="1" x2="-3" y2="1" stroke="#3b82f6" stroke-width="0.4" opacity="0.4"/>
    
    <!-- Text lines on right page -->
    <line x1="2" y1="-3" x2="6" y2="-3" stroke="#3b82f6" stroke-width="0.4" opacity="0.8"/>
    <line x1="2" y1="-1" x2="6" y2="-1" stroke="#3b82f6" stroke-width="0.4" opacity="0.6"/>
    <line x1="2" y1="1" x2="5" y2="1" stroke="#3b82f6" stroke-width="0.4" opacity="0.4"/>
  </g>
  
  <!-- "EN" text badge at bottom -->
  <g transform="translate(16, 25)">
    <!-- Background pill for text -->
    <rect x="-6" y="-2" width="12" height="4" rx="2" fill="rgba(255,255,255,0.95)" opacity="0.9"/>
    
    <!-- E letter -->
    <g stroke="#1d4ed8" stroke-width="1" fill="none" stroke-linecap="round" stroke-linejoin="round">
      <path d="M -3 -1.5 L -3 1.5 M -3 -1.5 L -1 -1.5 M -3 0 L -1.5 0 M -3 1.5 L -1 1.5"/>
    </g>
    
    <!-- N letter -->
    <g stroke="#1d4ed8" stroke-width="1" fill="none" stroke-linecap="round" stroke-linejoin="round">
      <path d="M 1 -1.5 L 1 1.5 M 3 -1.5 L 3 1.5 M 1 -1.5 L 3 1.5"/>
    </g>
  </g>
</svg>
